<svg width="40" height="40" viewBox="0 0 40 40" fill="none" xmlns="http://www.w3.org/2000/svg">
<g clip-path="url(#clip0_18_11)">
<path d="M23.3333 6.66667C23.3333 5.74667 24.0783 5 25 5H28.3333C32.01 5 35 7.99 35 11.6667V15C35 15.92 34.255 16.6667 33.3333 16.6667C32.4117 16.6667 31.6667 15.92 31.6667 15V11.6667C31.6667 9.82833 30.1717 8.33333 28.3333 8.33333H25C24.0783 8.33333 23.3333 7.58667 23.3333 6.66667ZM15 31.6667H11.6667C9.82833 31.6667 8.33333 30.1717 8.33333 28.3333V25C8.33333 24.08 7.58833 23.3333 6.66667 23.3333C5.745 23.3333 5 24.08 5 25V28.3333C5 32.01 7.99 35 11.6667 35H15C15.9217 35 16.6667 34.2533 16.6667 33.3333C16.6667 32.4133 15.9217 31.6667 15 31.6667ZM20 10C20 15.515 15.515 20 10 20C4.485 20 0 15.515 0 10C0 4.485 4.485 0 10 0C15.515 0 20 4.485 20 10ZM6.66667 6.66667C6.66667 8.50833 8.15833 10 10 10C11.8417 10 13.3333 8.50833 13.3333 6.66667C13.3333 4.825 11.8417 3.33333 10 3.33333C8.15833 3.33333 6.66667 4.825 6.66667 6.66667ZM14.6267 14.7833C13.885 12.9583 12.1033 11.6667 10.0133 11.6667H9.98667C7.89667 11.6667 6.11167 12.9567 5.37167 14.78C6.57167 15.9433 8.20167 16.6667 10.0017 16.6667C11.8017 16.6667 13.4267 15.945 14.6283 14.7833H14.6267ZM40 30C40 35.515 35.515 40 30 40C24.485 40 20 35.515 20 30C20 24.485 24.485 20 30 20C35.515 20 40 24.485 40 30ZM26.6667 26.6667C26.6667 28.5083 28.1583 30 30 30C31.8417 30 33.3333 28.5083 33.3333 26.6667C33.3333 24.825 31.8417 23.3333 30 23.3333C28.1583 23.3333 26.6667 24.825 26.6667 26.6667ZM34.6267 34.7833C33.885 32.9583 32.1033 31.6667 30.0133 31.6667H29.9867C27.8967 31.6667 26.1117 32.9567 25.3717 34.78C26.5717 35.9433 28.2017 36.6667 30.0017 36.6667C31.8017 36.6667 33.4267 35.945 34.6283 34.7833H34.6267Z" fill="#9E3D3D"/>
</g>
<defs>
<clipPath id="clip0_18_11">
<rect width="40" height="40" fill="white"/>
</clipPath>
</defs>
</svg>
