<svg width="40" height="40" viewBox="0 0 40 40" fill="none" xmlns="http://www.w3.org/2000/svg">
<path d="M27.22 15.8401C26.7617 15.0434 25.7433 14.7667 24.945 15.2284L23.9983 15.7734C23.3466 15.1567 22.5483 14.7034 21.6666 14.4384V13.3334C21.6666 12.4134 20.9216 11.6667 20 11.6667C19.0783 11.6667 18.3333 12.4134 18.3333 13.3334V14.4384C17.4516 14.7034 16.655 15.1567 16.0016 15.7734L15.055 15.2284C14.2566 14.7667 13.2366 15.0434 12.78 15.8401C12.32 16.6384 12.595 17.6567 13.3916 18.1167L14.3366 18.6617C14.235 19.0934 14.1666 19.5384 14.1666 20.0017C14.1666 20.4651 14.235 20.9084 14.3366 21.3401L13.39 21.8867C12.5916 22.3467 12.3183 23.3667 12.78 24.1634C13.09 24.6967 13.6483 24.9967 14.225 24.9967C14.5083 24.9967 14.795 24.9251 15.0566 24.7734L16.0016 24.2267C16.6533 24.8434 17.4516 25.2967 18.3316 25.5617V26.6667C18.3316 27.5884 19.0766 28.3334 19.9983 28.3334C20.92 28.3334 21.665 27.5884 21.665 26.6667V25.5617C22.5466 25.2967 23.3433 24.8434 23.995 24.2267L24.9416 24.7734C25.2033 24.9251 25.49 24.9967 25.7716 24.9967C26.3483 24.9967 26.91 24.6967 27.2166 24.1617C27.6766 23.3634 27.4016 22.3451 26.605 21.8867L25.66 21.3417C25.7616 20.9101 25.83 20.4651 25.83 20.0017C25.83 19.5384 25.7616 19.0951 25.66 18.6617L26.605 18.1167C27.4033 17.6584 27.6783 16.6384 27.2166 15.8401H27.22ZM20 22.5001C18.6216 22.5001 17.5 21.3784 17.5 20.0001C17.5 18.6217 18.6216 17.5001 20 17.5001C21.3783 17.5001 22.5 18.6217 22.5 20.0001C22.5 21.3784 21.3783 22.5001 20 22.5001ZM35 14.9767C34.9766 14.9767 34.9566 14.9834 34.9333 14.9834L31.9816 10.0651C32.8133 9.17175 33.3333 7.98341 33.3333 6.66675C33.3333 3.90508 31.095 1.66675 28.3333 1.66675C26.16 1.66675 24.3283 3.06175 23.64 5.00008H16.3616C15.6733 3.06175 13.8416 1.66675 11.6683 1.66675C8.90665 1.66675 6.66831 3.90508 6.66831 6.66675C6.66831 7.98341 7.18831 9.17175 8.01998 10.0651L5.06831 14.9834C5.04498 14.9834 5.02498 14.9767 5.00165 14.9767C2.23998 14.9767 0.00164795 17.2151 0.00164795 19.9767C0.00164795 22.7384 2.23998 24.9767 5.00165 24.9767C5.01498 24.9767 5.02831 24.9734 5.04165 24.9734L8.01998 29.9367C7.18831 30.8301 6.66831 32.0184 6.66831 33.3351C6.66831 36.0967 8.90665 38.3351 11.6683 38.3351C13.8416 38.3351 15.6733 36.9401 16.3616 35.0017H23.64C24.3283 36.9401 26.16 38.3351 28.3333 38.3351C31.095 38.3351 33.3333 36.0967 33.3333 33.3351C33.3333 32.0184 32.8133 30.8301 31.9816 29.9367L34.96 24.9734C34.9733 24.9734 34.9866 24.9767 35 24.9767C37.7616 24.9767 40 22.7384 40 19.9767C40 17.2151 37.7616 14.9767 35 14.9767ZM29.015 28.4017C28.79 28.3701 28.5666 28.3334 28.3333 28.3334C26.16 28.3334 24.3283 29.7284 23.64 31.6667H16.3616C15.6733 29.7284 13.8416 28.3334 11.6683 28.3334C11.435 28.3334 11.2116 28.3717 10.9866 28.4017L8.21331 23.7801C9.29831 22.8634 10.0016 21.5084 10.0016 19.9767C10.0016 18.4534 9.30665 17.1067 8.23165 16.1884L10.9866 11.5967C11.2116 11.6284 11.435 11.6651 11.6683 11.6651C13.8416 11.6651 15.6733 10.2701 16.3616 8.33175H23.64C24.3283 10.2701 26.16 11.6651 28.3333 11.6651C28.5666 11.6651 28.79 11.6267 29.015 11.5967L31.77 16.1884C30.695 17.1051 30 18.4534 30 19.9767C30 21.5084 30.7033 22.8617 31.7883 23.7801L29.015 28.4017Z" fill="#9E3D3D"/>
</svg>
