<svg width="25" height="25" viewBox="0 0 25 25" fill="none" xmlns="http://www.w3.org/2000/svg">
<path d="M20.3125 3.125H4.6875C4.2731 3.125 3.87567 3.28962 3.58265 3.58265C3.28962 3.87567 3.125 4.2731 3.125 4.6875V20.3125C3.125 20.7269 3.28962 21.1243 3.58265 21.4174C3.87567 21.7104 4.2731 21.875 4.6875 21.875H20.3125C20.7269 21.875 21.1243 21.7104 21.4174 21.4174C21.7104 21.1243 21.875 20.7269 21.875 20.3125V4.6875C21.875 4.2731 21.7104 3.87567 21.4174 3.58265C21.1243 3.28962 20.7269 3.125 20.3125 3.125ZM4.6875 20.3125V4.6875H20.3125V20.3125H4.6875Z" fill="#9E3D3D"/>
<path d="M10.9375 16.7969L7.03125 12.9219L8.27344 11.7188L10.9375 14.3359L16.7266 8.59375L17.9688 9.82812L10.9375 16.7969Z" fill="#9E3D3D"/>
</svg>
