<svg width="34" height="34" viewBox="0 0 34 34" fill="none" xmlns="http://www.w3.org/2000/svg">
<rect width="34" height="34" rx="17" fill="#F6F6F6"/>
<path d="M23.6454 21.2197C23.6454 21.4597 23.592 21.7063 23.4787 21.9463C23.3654 22.1863 23.2187 22.413 23.0254 22.6263C22.6987 22.9863 22.3387 23.2463 21.932 23.413C21.532 23.5797 21.0987 23.6663 20.632 23.6663C19.952 23.6663 19.2254 23.5063 18.4587 23.1797C17.692 22.853 16.9254 22.413 16.1654 21.8597C15.3987 21.2997 14.672 20.6797 13.9787 19.993C13.292 19.2997 12.672 18.573 12.1187 17.813C11.572 17.053 11.132 16.293 10.812 15.5397C10.492 14.7797 10.332 14.053 10.332 13.3597C10.332 12.9063 10.412 12.473 10.572 12.073C10.732 11.6663 10.9854 11.293 11.3387 10.9597C11.7654 10.5397 12.232 10.333 12.7254 10.333C12.912 10.333 13.0987 10.373 13.2654 10.453C13.4387 10.533 13.592 10.653 13.712 10.8263L15.2587 13.0063C15.3787 13.173 15.4654 13.3263 15.5254 13.473C15.5854 13.613 15.6187 13.753 15.6187 13.8797C15.6187 14.0397 15.572 14.1997 15.4787 14.353C15.392 14.5063 15.2654 14.6663 15.1054 14.8263L14.5987 15.353C14.5254 15.4263 14.492 15.513 14.492 15.6197C14.492 15.673 14.4987 15.7197 14.512 15.773C14.532 15.8263 14.552 15.8663 14.5654 15.9063C14.6854 16.1263 14.892 16.413 15.1854 16.7597C15.4854 17.1063 15.8054 17.4597 16.152 17.813C16.512 18.1663 16.8587 18.493 17.212 18.793C17.5587 19.0863 17.8454 19.2863 18.072 19.4063C18.1054 19.4197 18.1454 19.4397 18.192 19.4597C18.2454 19.4797 18.2987 19.4863 18.3587 19.4863C18.472 19.4863 18.5587 19.4463 18.632 19.373L19.1387 18.873C19.3054 18.7063 19.4654 18.5797 19.6187 18.4997C19.772 18.4063 19.9254 18.3597 20.092 18.3597C20.2187 18.3597 20.352 18.3863 20.4987 18.4463C20.6454 18.5063 20.7987 18.593 20.9654 18.7063L23.172 20.273C23.3454 20.393 23.4654 20.533 23.5387 20.6997C23.6054 20.8663 23.6454 21.033 23.6454 21.2197Z" stroke="#9E3D3D" stroke-miterlimit="10"/>
</svg>
