<svg width="25" height="24" viewBox="0 0 25 24" fill="none" xmlns="http://www.w3.org/2000/svg">
<path d="M15.5167 3.95V7.75H14.0167V3.95C14.0167 3.68 13.7767 3.55 13.6167 3.55C13.5667 3.55 13.5167 3.56 13.4667 3.58L5.53669 6.57C5.00669 6.77 4.66669 7.27 4.66669 7.84V8.51C3.75669 9.19 3.16669 10.28 3.16669 11.51V7.84C3.16669 6.65 3.89669 5.59 5.00669 5.17L12.9467 2.17C13.1667 2.09 13.3967 2.05 13.6167 2.05C14.6167 2.05 15.5167 2.86 15.5167 3.95Z" fill="#9E3D3D"/>
<path d="M22.1667 14.5V15.5C22.1667 15.77 21.9567 15.99 21.6767 16H20.2167C19.6867 16 19.2067 15.61 19.1667 15.09C19.1367 14.78 19.2567 14.49 19.4567 14.29C19.6367 14.1 19.8867 14 20.1567 14H21.6667C21.9567 14.01 22.1667 14.23 22.1667 14.5Z" fill="#9E3D3D"/>
<path d="M20.1467 12.95H21.1667C21.7167 12.95 22.1667 12.5 22.1667 11.95V11.51C22.1667 9.44 20.4767 7.75 18.4067 7.75H6.92669C6.07669 7.75 5.29669 8.03 4.66669 8.51C3.75669 9.19 3.16669 10.28 3.16669 11.51V18.24C3.16669 20.31 4.85669 22 6.92669 22H18.4067C20.4767 22 22.1667 20.31 22.1667 18.24V18.05C22.1667 17.5 21.7167 17.05 21.1667 17.05H20.2967C19.3367 17.05 18.4167 16.46 18.1667 15.53C17.9567 14.77 18.2067 14.04 18.7067 13.55C19.0767 13.17 19.5867 12.95 20.1467 12.95ZM14.6667 12.75H7.66669C7.25669 12.75 6.91669 12.41 6.91669 12C6.91669 11.59 7.25669 11.25 7.66669 11.25H14.6667C15.0767 11.25 15.4167 11.59 15.4167 12C15.4167 12.41 15.0767 12.75 14.6667 12.75Z" fill="#9E3D3D"/>
</svg>
