<svg width="25" height="24" viewBox="0 0 25 24" fill="none" xmlns="http://www.w3.org/2000/svg">
<path d="M12.3333 2C9.71333 2 7.58333 4.13 7.58333 6.75C7.58333 9.32 9.59333 11.4 12.2133 11.49C12.2933 11.48 12.3733 11.48 12.4333 11.49C12.4533 11.49 12.4633 11.49 12.4833 11.49C12.4933 11.49 12.4933 11.49 12.5033 11.49C15.0633 11.4 17.0733 9.32 17.0833 6.75C17.0833 4.13 14.9533 2 12.3333 2Z" fill="#9E3D3D"/>
<path d="M17.4133 14.15C14.6233 12.29 10.0733 12.29 7.26333 14.15C5.99333 15 5.29333 16.15 5.29333 17.38C5.29333 18.61 5.99334 19.75 7.25333 20.59C8.65334 21.53 10.4933 22 12.3333 22C14.1733 22 16.0133 21.53 17.4133 20.59C18.6733 19.74 19.3733 18.6 19.3733 17.36C19.3633 16.13 18.6733 14.99 17.4133 14.15Z" fill="#9E3D3D"/>
</svg>
