<svg width="40" height="40" viewBox="0 0 40 40" fill="none" xmlns="http://www.w3.org/2000/svg">
<path d="M3.33333 13.3333V11.6666C3.33333 6.14329 7.81 1.66663 13.3333 1.66663H26.6667C32.19 1.66663 36.6667 6.14329 36.6667 11.6666V13.3333C32.985 13.3333 30 16.3183 30 20V25H10V20C10 16.3183 7.015 13.3333 3.33333 13.3333ZM36.1067 16.7116C34.4683 16.9783 33.3333 18.5166 33.3333 20.1783V26.6666C33.3333 27.5866 32.5867 28.3333 31.6667 28.3333H8.33333C7.41333 28.3333 6.66667 27.5866 6.66667 26.6666V20.1783C6.66667 18.5183 5.53167 16.9783 3.89333 16.7116C1.805 16.3716 0 17.975 0 20V26.6666C0 29.3933 1.31 31.8133 3.33333 33.3333V36.6666C3.33333 37.5866 4.08 38.3333 5 38.3333C5.92 38.3333 6.66667 37.5866 6.66667 36.6666V34.8333C7.205 34.9433 7.76333 35 8.33333 35H31.6667C32.2367 35 32.795 34.9433 33.3333 34.8333V36.6666C33.3333 37.5866 34.08 38.3333 35 38.3333C35.92 38.3333 36.6667 37.5866 36.6667 36.6666V33.3333C38.69 31.8133 40 29.3933 40 26.6666V20C40 17.975 38.195 16.3733 36.1067 16.7116Z" fill="#9E3D3D"/>
</svg>
