<svg width="40" height="40" viewBox="0 0 40 40" fill="none" xmlns="http://www.w3.org/2000/svg">
<g clip-path="url(#clip0_54_578)">
<path d="M31.6667 25.8167C31.6667 25.9783 31.6667 35 31.6667 35C31.6667 35.9217 30.9217 36.6667 30 36.6667C29.0783 36.6667 28.3333 35.9217 28.3333 35V28.965L22.4433 31.2183C21.6617 31.5183 20.8233 31.6667 19.985 31.6667C19.1417 31.6667 18.3 31.5167 17.515 31.215L10.2717 28.4317C9.07333 27.97 8.33 26.9683 8.33167 25.8183C8.33167 24.6667 9.08 23.6667 10.28 23.2083L17.525 20.445C19.0783 19.8517 20.8633 19.85 22.4183 20.44L29.71 23.2067C30.8933 23.6533 31.6617 24.6783 31.6633 25.815L31.6667 25.8167ZM40 8.33333V11.6667H0V8.33333C0 3.73833 3.73833 0 8.33333 0H31.6667C36.2617 0 40 3.73833 40 8.33333ZM10 5.83333C10 4.45333 8.88 3.33333 7.5 3.33333C6.12 3.33333 5 4.45333 5 5.83333C5 7.21333 6.12 8.33333 7.5 8.33333C8.88 8.33333 10 7.21333 10 5.83333ZM16.6667 5.83333C16.6667 4.45333 15.5467 3.33333 14.1667 3.33333C12.7867 3.33333 11.6667 4.45333 11.6667 5.83333C11.6667 7.21333 12.7867 8.33333 14.1667 8.33333C15.5467 8.33333 16.6667 7.21333 16.6667 5.83333ZM19.9767 35C18.7083 35 17.4767 34.775 16.3117 34.3333L13.3333 33.1967V35.3233C13.3333 36.9467 14.2833 38.4333 15.7567 39.1117C17.0383 39.7017 18.465 40 20 40C21.535 40 22.9617 39.7 24.2467 39.1117C25.7167 38.4333 26.6667 36.945 26.6667 35.3233V33.1833L23.6283 34.3367C22.475 34.7767 21.245 35 19.9767 35ZM0 28.3333C0 32.9283 3.73833 36.6667 8.33333 36.6667H10.1367C10.055 36.2267 10 35.78 10 35.3217V31.8967L9.07667 31.5417C6.59667 30.5883 4.99667 28.34 5 25.8117C5.00333 23.2833 6.61 21.04 9.09333 20.0933L16.3383 17.33C18.6467 16.4517 21.2933 16.4483 23.6033 17.3233L30.8967 20.0917C33.1567 20.9433 35.0367 23.3317 35.0367 25.81C35.0367 25.9867 35 34.9983 35 34.9983C35 35.345 34.9633 35.685 34.895 36.0133C37.89 34.7483 40 31.7833 40 28.3317V14.9983H0V28.3333Z" fill="#9E3D3D"/>
</g>
<defs>
<clipPath id="clip0_54_578">
<rect width="40" height="40" fill="white"/>
</clipPath>
</defs>
</svg>
