<svg width="40" height="40" viewBox="0 0 40 40" fill="none" xmlns="http://www.w3.org/2000/svg">
<g clip-path="url(#clip0_54_561)">
<path d="M27.6417 16.0266L25.35 9.99996H29.3867C30.9215 10.0037 32.4341 10.3675 33.8027 11.0622C35.1713 11.757 36.3578 12.7632 37.2667 14L38.5783 15.7916C39.1373 16.5542 39.5447 17.4171 39.7783 18.3333H28.2533C28.135 17.5442 27.9299 16.7706 27.6417 16.0266ZM20 6.66663C20.442 6.66663 20.8659 6.49104 21.1785 6.17848C21.4911 5.86591 21.6667 5.44199 21.6667 4.99996V1.66663C21.6667 1.2246 21.4911 0.80068 21.1785 0.488119C20.8659 0.175559 20.442 -3.61042e-05 20 -3.61042e-05C19.558 -3.61042e-05 19.134 0.175559 18.8215 0.488119C18.5089 0.80068 18.3333 1.2246 18.3333 1.66663V4.99996C18.3333 5.44199 18.5089 5.86591 18.8215 6.17848C19.134 6.49104 19.558 6.66663 20 6.66663ZM24.5367 17.2383L21.785 9.99996H18.23L15.4333 17.42C15.326 17.7187 15.237 18.0237 15.1667 18.3333H24.8683C24.7851 17.9606 24.6742 17.5946 24.5367 17.2383ZM27.5883 6.49996C27.7851 6.5989 27.9995 6.65786 28.2192 6.67342C28.4389 6.68899 28.6595 6.66085 28.8683 6.59065C29.077 6.52044 29.2698 6.40956 29.4354 6.2644C29.6011 6.11925 29.7363 5.9427 29.8333 5.74496L31.5 2.41163C31.6976 2.01602 31.7299 1.55811 31.5899 1.13866C31.4499 0.719201 31.1489 0.37255 30.7533 0.174964C30.3577 -0.0226224 29.8998 -0.0549588 29.4804 0.0850684C29.0609 0.225096 28.7142 0.526016 28.5167 0.921631L26.85 4.25496C26.7505 4.45074 26.6906 4.66425 26.6739 4.88322C26.6571 5.1022 26.6838 5.32233 26.7525 5.53095C26.8211 5.73958 26.9302 5.93259 27.0737 6.09888C27.2171 6.26518 27.392 6.40148 27.5883 6.49996ZM19.98 31.4783L24.6233 22.7233C24.7412 22.3782 24.8342 22.025 24.9017 21.6666H15C15.0749 22.0959 15.1864 22.518 15.3333 22.9283L19.98 31.4783ZM12.3333 16.215L14.6667 9.99996H10.6383C9.13503 10.0039 7.65271 10.3529 6.30558 11.0201C4.95846 11.6873 3.7825 12.6549 2.86833 13.8483L1.49999 15.6383C0.8971 16.4399 0.466421 17.3574 0.234993 18.3333H11.735C11.8631 17.609 12.0636 16.8993 12.3333 16.215ZM28.2817 21.6666C28.1767 22.4631 27.9844 23.2456 27.7083 24C27.6833 24.0666 21.4483 35.79 21.4433 35.7916C21.3075 36.0554 21.102 36.2768 20.8491 36.4319C20.5962 36.5869 20.3057 36.6696 20.009 36.671C19.7124 36.6724 19.4211 36.5923 19.1668 36.4397C18.9124 36.287 18.7049 36.0674 18.5667 35.805C18.5667 35.805 12.2767 24.285 12.25 24.2133C11.9514 23.3911 11.7523 22.5361 11.6567 21.6666H0.20166C0.509891 23.1579 1.28514 24.5123 2.41499 25.5333L15.7317 38.3783C16.9013 39.4214 18.4145 39.9964 19.9817 39.9933C21.582 39.9901 23.125 39.3967 24.315 38.3266L37.5417 25.605C38.7007 24.5685 39.4978 23.1885 39.8167 21.6666H28.2817ZM10.175 5.74496C10.3726 6.14168 10.7197 6.44366 11.1399 6.58447C11.5601 6.72528 12.0191 6.69338 12.4158 6.4958C12.8125 6.29821 13.1145 5.95112 13.2553 5.53088C13.3961 5.11065 13.3642 4.65168 13.1667 4.25496L11.5 0.921631C11.4022 0.725742 11.2667 0.551042 11.1013 0.407504C10.936 0.263967 10.744 0.154403 10.5363 0.0850684C10.1168 -0.0549588 9.65894 -0.0226224 9.26333 0.174964C8.86771 0.37255 8.56679 0.719201 8.42676 1.13866C8.28674 1.55811 8.31907 2.01602 8.51666 2.41163L10.175 5.74496Z" fill="#9E3D3D"/>
</g>
<defs>
<clipPath id="clip0_54_561">
<rect width="40" height="40" fill="white"/>
</clipPath>
</defs>
</svg>
