<svg width="40" height="40" viewBox="0 0 40 40" fill="none" xmlns="http://www.w3.org/2000/svg">
<g clip-path="url(#clip0_54_554)">
<path d="M16.18 20.9167C14.5017 19.36 11.7467 19.67 10.4933 21.7467C9.68 23.0967 9.91 24.8384 10.9017 26.0617L13.8817 29.9017C14.4467 30.6284 14.315 31.675 13.5867 32.24C12.86 32.805 11.8133 32.6734 11.2483 31.945L8.26833 28.105C6.39833 25.8 6.12667 22.53 7.63833 20.025C7.84333 19.685 8.08167 19.3734 8.33333 19.0784V9.33838C8.33333 7.15838 6.765 5.17338 4.59667 4.95504C2.10333 4.70504 0 6.65671 0 9.10004V26.6784C0 30.235 1.42167 33.645 3.94833 36.15L6.935 39.1084C7.55167 39.68 8.36 39.9967 9.20167 39.9967H21.6667C22.5867 39.9967 23.3333 39.25 23.3333 38.33V31.9634C23.3333 29.205 22.1933 26.5684 20.1833 24.6784L16.18 20.915V20.9167ZM35.4033 4.95838C33.235 5.17504 31.6667 7.16171 31.6667 9.34171V19.0817C31.9183 19.3767 32.155 19.6867 32.3617 20.0284C33.8717 22.5334 33.6017 25.8034 31.7317 28.1084L26.6683 33.1484V38.335C26.6683 38.9217 26.5483 39.4784 26.3617 40.0017H30.8017C31.6417 40.0017 32.4517 39.685 33.0683 39.1134L36.0517 36.16C38.58 33.6567 40.0033 30.245 40.0033 26.685V9.10338C40.0033 6.66004 37.9017 4.70838 35.4067 4.95838H35.4033ZM29.5067 21.7484C28.2533 19.6717 25.4983 19.3617 23.82 20.9184L22.4333 22.2217L22.4667 22.2534C24.3683 24.0417 25.6683 26.36 26.2717 28.8667L29.0967 26.0634C30.0883 24.84 30.3183 23.0967 29.505 21.7484H29.5067ZM28.3383 4.58504C28.3383 8.19004 23.6383 12.67 21.2967 14.5484C20.5417 15.1534 19.4683 15.1534 18.7133 14.5484C16.3717 12.6684 11.6717 8.19004 11.6717 4.58504C11.5617 2.17004 13.425 0.121709 15.8383 0.00170898C18.2517 0.121709 20.115 2.17004 20.005 4.58504C19.895 2.17004 21.7583 0.121709 24.1717 0.00170898C26.585 0.121709 28.4483 2.17004 28.3383 4.58504Z" fill="#9E3D3D"/>
</g>
<defs>
<clipPath id="clip0_54_554">
<rect width="40" height="40" fill="white"/>
</clipPath>
</defs>
</svg>
