<svg width="52" height="52" viewBox="0 0 52 52" fill="none" xmlns="http://www.w3.org/2000/svg">
<rect width="52" height="52" rx="26" fill="#9E3D3D"/>
<path d="M35.139 31.8041C35.139 32.1341 35.0656 32.4733 34.9098 32.8033C34.754 33.1333 34.5523 33.445 34.2865 33.7383C33.8373 34.2333 33.3423 34.5908 32.7831 34.82C32.2331 35.0491 31.6373 35.1683 30.9956 35.1683C30.0606 35.1683 29.0615 34.9483 28.0073 34.4991C26.9531 34.05 25.899 33.445 24.854 32.6841C23.7998 31.9141 22.8006 31.0616 21.8473 30.1175C20.9031 29.1641 20.0506 28.165 19.2898 27.12C18.5381 26.075 17.9331 25.03 17.4931 23.9941C17.0531 22.9491 16.8331 21.95 16.8331 20.9966C16.8331 20.3733 16.9431 19.7775 17.1631 19.2275C17.3831 18.6683 17.7315 18.155 18.2173 17.6966C18.804 17.1191 19.4456 16.835 20.124 16.835C20.3806 16.835 20.6373 16.89 20.8665 17C21.1048 17.11 21.3156 17.275 21.4806 17.5133L23.6073 20.5108C23.7723 20.74 23.8915 20.9508 23.974 21.1525C24.0565 21.345 24.1023 21.5375 24.1023 21.7116C24.1023 21.9316 24.0381 22.1516 23.9098 22.3625C23.7906 22.5733 23.6165 22.7933 23.3965 23.0133L22.6998 23.7375C22.599 23.8383 22.5531 23.9575 22.5531 24.1041C22.5531 24.1775 22.5623 24.2416 22.5806 24.315C22.6081 24.3883 22.6356 24.4433 22.654 24.4983C22.819 24.8008 23.1031 25.195 23.5065 25.6716C23.919 26.1483 24.359 26.6341 24.8356 27.12C25.3306 27.6058 25.8073 28.055 26.2931 28.4675C26.7698 28.8708 27.164 29.1458 27.4756 29.3108C27.5215 29.3291 27.5765 29.3566 27.6406 29.3841C27.714 29.4116 27.7873 29.4208 27.8698 29.4208C28.0256 29.4208 28.1448 29.3658 28.2456 29.265L28.9423 28.5775C29.1715 28.3483 29.3915 28.1741 29.6023 28.0641C29.8131 27.9358 30.024 27.8716 30.2531 27.8716C30.4273 27.8716 30.6106 27.9083 30.8123 27.9908C31.014 28.0733 31.2248 28.1925 31.454 28.3483L34.4881 30.5025C34.7265 30.6675 34.8915 30.86 34.9923 31.0891C35.084 31.3183 35.139 31.5475 35.139 31.8041Z" stroke="white" stroke-miterlimit="10"/>
<path d="M31.9583 23.2484C31.9583 22.6984 31.5275 21.855 30.8858 21.1675C30.2992 20.535 29.52 20.04 28.75 20.04" stroke="white" stroke-linecap="round" stroke-linejoin="round"/>
<path d="M35.1667 23.2516C35.1667 19.7041 32.2975 16.835 28.75 16.835" stroke="white" stroke-linecap="round" stroke-linejoin="round"/>
</svg>
