<svg width="50" height="50" viewBox="0 0 50 50" fill="none" xmlns="http://www.w3.org/2000/svg">
<g clip-path="url(#clip0_78_693)">
<path fill-rule="evenodd" clip-rule="evenodd" d="M25.0222 49.8499C38.729 49.8499 49.9431 38.6852 49.9431 24.9288C49.9431 11.1725 38.729 0.0079155 25.0222 0.0079155C11.2657 0.0079155 0.101074 11.1725 0.101074 24.9288C0.101074 38.6852 11.2657 49.8499 25.0222 49.8499Z" fill="#299400"/>
<path fill-rule="evenodd" clip-rule="evenodd" d="M25.0221 7.79583C33.5886 7.79583 39.4033 14.3899 39.4033 21.5027C39.4033 24.3583 38.78 26.8503 37.3264 29.9656C28.8116 29.9656 27.2544 35.6249 26.891 39.4153L26.6312 42.0627L23.413 42.062L23.1531 39.4145C22.7897 35.6241 21.2325 29.9648 12.7177 29.9648C11.2641 26.8497 10.6409 24.3575 10.6409 21.5019C10.6409 14.3891 16.4555 7.79503 25.0221 7.79503V7.79583Z" fill="white"/>
</g>
<defs>
<clipPath id="clip0_78_693">
<rect width="50" height="50" fill="white"/>
</clipPath>
</defs>
</svg>
