<svg width="50" height="50" viewBox="0 0 50 50" fill="none" xmlns="http://www.w3.org/2000/svg">
<rect width="50" height="50" rx="25" fill="#9E3D3D"/>
<path d="M25 15C19.49 15 15 19.49 15 25C15 30.51 19.49 35 25 35C30.51 35 35 30.51 35 25C35 19.49 30.51 15 25 15ZM29.35 28.57C29.21 28.81 28.96 28.94 28.7 28.94C28.57 28.94 28.44 28.91 28.32 28.83L25.22 26.98C24.45 26.52 23.88 25.51 23.88 24.62V20.52C23.88 20.11 24.22 19.77 24.63 19.77C25.04 19.77 25.38 20.11 25.38 20.52V24.62C25.38 24.98 25.68 25.51 25.99 25.69L29.09 27.54C29.45 27.75 29.57 28.21 29.35 28.57Z" fill="white"/>
</svg>
