<svg width="51" height="50" viewBox="0 0 51 50" fill="none" xmlns="http://www.w3.org/2000/svg">
<rect x="0.5" width="50" height="50" rx="25" fill="#9E3D3D"/>
<path d="M30.25 16.56V15C30.25 14.59 29.91 14.25 29.5 14.25C29.09 14.25 28.75 14.59 28.75 15V16.5H22.25V15C22.25 14.59 21.91 14.25 21.5 14.25C21.09 14.25 20.75 14.59 20.75 15V16.56C18.05 16.81 16.74 18.42 16.54 20.81C16.52 21.1 16.76 21.34 17.04 21.34H33.96C34.25 21.34 34.49 21.09 34.46 20.81C34.26 18.42 32.95 16.81 30.25 16.56Z" fill="white"/>
<path d="M33.5 22.8401H17.5C16.95 22.8401 16.5 23.2901 16.5 23.8401V30.0001C16.5 33.0001 18 35.0001 21.5 35.0001H29.5C33 35.0001 34.5 33.0001 34.5 30.0001V23.8401C34.5 23.2901 34.05 22.8401 33.5 22.8401ZM22.71 31.2101C22.66 31.2501 22.61 31.3001 22.56 31.3301C22.5 31.3701 22.44 31.4001 22.38 31.4201C22.32 31.4501 22.26 31.4701 22.2 31.4801C22.13 31.4901 22.07 31.5001 22 31.5001C21.87 31.5001 21.74 31.4701 21.62 31.4201C21.49 31.3701 21.39 31.3001 21.29 31.2101C21.11 31.0201 21 30.7601 21 30.5001C21 30.2401 21.11 29.9801 21.29 29.7901C21.39 29.7001 21.49 29.6301 21.62 29.5801C21.8 29.5001 22 29.4801 22.2 29.5201C22.26 29.5301 22.32 29.5501 22.38 29.5801C22.44 29.6001 22.5 29.6301 22.56 29.6701C22.61 29.7101 22.66 29.7501 22.71 29.7901C22.89 29.9801 23 30.2401 23 30.5001C23 30.7601 22.89 31.0201 22.71 31.2101ZM22.71 27.7101C22.52 27.8901 22.26 28.0001 22 28.0001C21.74 28.0001 21.48 27.8901 21.29 27.7101C21.11 27.5201 21 27.2601 21 27.0001C21 26.7401 21.11 26.4801 21.29 26.2901C21.57 26.0101 22.01 25.9201 22.38 26.0801C22.51 26.1301 22.62 26.2001 22.71 26.2901C22.89 26.4801 23 26.7401 23 27.0001C23 27.2601 22.89 27.5201 22.71 27.7101ZM26.21 31.2101C26.02 31.3901 25.76 31.5001 25.5 31.5001C25.24 31.5001 24.98 31.3901 24.79 31.2101C24.61 31.0201 24.5 30.7601 24.5 30.5001C24.5 30.2401 24.61 29.9801 24.79 29.7901C25.16 29.4201 25.84 29.4201 26.21 29.7901C26.39 29.9801 26.5 30.2401 26.5 30.5001C26.5 30.7601 26.39 31.0201 26.21 31.2101ZM26.21 27.7101C26.16 27.7501 26.11 27.7901 26.06 27.8301C26 27.8701 25.94 27.9001 25.88 27.9201C25.82 27.9501 25.76 27.9701 25.7 27.9801C25.63 27.9901 25.57 28.0001 25.5 28.0001C25.24 28.0001 24.98 27.8901 24.79 27.7101C24.61 27.5201 24.5 27.2601 24.5 27.0001C24.5 26.7401 24.61 26.4801 24.79 26.2901C24.88 26.2001 24.99 26.1301 25.12 26.0801C25.49 25.9201 25.93 26.0101 26.21 26.2901C26.39 26.4801 26.5 26.7401 26.5 27.0001C26.5 27.2601 26.39 27.5201 26.21 27.7101ZM29.71 31.2101C29.52 31.3901 29.26 31.5001 29 31.5001C28.74 31.5001 28.48 31.3901 28.29 31.2101C28.11 31.0201 28 30.7601 28 30.5001C28 30.2401 28.11 29.9801 28.29 29.7901C28.66 29.4201 29.34 29.4201 29.71 29.7901C29.89 29.9801 30 30.2401 30 30.5001C30 30.7601 29.89 31.0201 29.71 31.2101ZM29.71 27.7101C29.66 27.7501 29.61 27.7901 29.56 27.8301C29.5 27.8701 29.44 27.9001 29.38 27.9201C29.32 27.9501 29.26 27.9701 29.2 27.9801C29.13 27.9901 29.06 28.0001 29 28.0001C28.74 28.0001 28.48 27.8901 28.29 27.7101C28.11 27.5201 28 27.2601 28 27.0001C28 26.7401 28.11 26.4801 28.29 26.2901C28.39 26.2001 28.49 26.1301 28.62 26.0801C28.8 26.0001 29 25.9801 29.2 26.0201C29.26 26.0301 29.32 26.0501 29.38 26.0801C29.44 26.1001 29.5 26.1301 29.56 26.1701C29.61 26.2101 29.66 26.2501 29.71 26.2901C29.89 26.4801 30 26.7401 30 27.0001C30 27.2601 29.89 27.5201 29.71 27.7101Z" fill="white"/>
</svg>
